<?xml version="1.0" encoding="UTF-8"?>
<svg xmlns="http://www.w3.org/2000/svg" version="1.1" xmlns:xlink="http://www.w3.org/1999/xlink" viewBox="0 0 300 150">
  <!-- Generator: Adobe Illustrator 29.8.3, SVG Export Plug-In . SVG Version: 2.1.1 Build 3)  -->
  <defs>
    <style>
      .st0 {
        display: none;
      }

      .st0, .st1, .st2, .st3, .st4 {
        isolation: isolate;
      }

      .st1 {
        fill: #003869;
      }

      .st2, .st5, .st4 {
        fill: #003061;
      }

      .st6 {
        fill: none;
      }

      .st7 {
        fill: #39b68a;
      }

      .st4 {
        font-family: NotoSans-SemiBold, 'Noto Sans';
        font-size: 9px;
        font-weight: 600;
      }
    </style>
  </defs>
  <g id="_レイヤー_1">
    <g id="_アートボード_1">
      <rect class="st6" y="0" width="300" height="150"/>
      <image class="st0" width="218" height="88" transform="translate(38 34)" xlink:href="nsf-logo-1.png"/>
      <path class="st1" d="M108,46.7s0,.3.2.6c.3.8.9,3,1.2,4,2.2,8.1,2.9,15.2,2,19.9-.4,2.1-1.1,4-1.9,5.2s-1.3,1.4-1.8,1.7c-.8.4-1.2.5-2.3.5s-1.9-.2-3-.6c-4.2-1.7-7.6-2.5-10.6-2.4-2,0-3.6.5-5.1,1.2-.6.3-1.6,1-2.2,1.5-1.2,1-2.3,2.7-2.8,4.1v.4l.3-.2c.4-.2,1-.5,1.6-.7s2.3-.2,3.1,0c1.1.2,2.5.8,3.4,1.4.5.4,1.4,1.2,1.8,1.8.6.9,1.1,2.1,1.2,3.2,0,1.8-.6,4.2-1.7,5.8-2.7,3.8-8.9,5.4-16.7,4.3-1.2-.2-2.4-.4-3.8-.8-3.3-.9-5.5-1.2-7.4-1-2.2.2-4,.9-5.8,2.2-1.1.8-2.1,1.4-3.2,1.6-.7.2-2.1.2-2.7,0-.9-.3-1.2-.5-2-1.3-1.7-1.8-3-3.6-4.1-5.9-2.2-4.4-3.5-9.6-3.8-15.9v-8.1c.3-3.3.7-6.8,1.3-9.3v-.7s-.3.5-.5,1.2c-2.6,6.3-4,12.1-4.4,18v5.7c.4,5.1,1.5,9.5,3.5,13.9,3,6.7,8.4,13.1,14.7,17.6,2.3,1.7,4.6,2.8,7.8,4,3.8,1.4,7.7,2.2,11.7,2.5h6.1c6.1-.7,11.4-2.6,16.6-6.1,5.9-3.9,10.4-9.1,13.5-15.2,3.5-7.2,5.1-15.6,4.8-26.1,0-3-.2-5.7-.3-6.8-.5-4.7-2.3-10-5.1-15.6-1.1-2.1-3.2-5.6-3.2-5.4l-.4-.2h0ZM107.9,93.9c-1.6,3.8-3.8,7.5-5.9,10.3-1.8,2.3-4.1,4.6-6.2,6.1-3.9,2.9-8.4,4.6-13.5,5.2-2.4.3-6.2.2-8.9-.2-3.5-.5-5.7-1.6-6.5-3.1-.4-.7-.3-1.6,0-2.4s2.2-2,4.2-2.4h2c1.2,0,1.8,0,3.3.4,3.7.9,9.2,1.1,12.7.4,2-.4,3.8-1,5.6-1.8,4.3-2.1,8.2-5.6,11.5-10.1.6-.8,1.5-2.3,1.8-2.9,0-.2.2-.3.2-.3,0,0-.2.5-.5,1.2,0,0,0-.3,0-.3h.1Z"/>
      <g class="st3">
        <g class="st3">
          <g class="st3">
            <text class="st4" transform="translate(129.7 106)"><tspan x="0" y="0">National Sister Fisheries</tspan></text>
          </g>
        </g>
        <g class="st3">
          <g class="st3">
            <text class="st4" transform="translate(129.7 116.8)"><tspan x="0" y="0">P</tspan></text>
          </g>
          <g class="st3">
            <text class="st4" transform="translate(135.3 116.8)"><tspan x="0" y="0">r</tspan></text>
          </g>
          <g class="st3">
            <text class="st4" transform="translate(139 116.8)"><tspan x="0" y="0">omotion Council Co., Ltd.</tspan></text>
          </g>
        </g>
      </g>
      <path class="st2" d="M188.9,45c-3.7.3-6.8,1.3-9.4,3.1-2.5,1.7-4.1,4.2-4.7,7.1-.2.9-.2,3,0,4.2.6,5.1,3.6,8,10.2,10.3,1.3.4,2.3.7,4.2,1.2,3.1.8,4.6,1.5,5.8,2.6.8.8,1.2,1.6,1.2,2.7s-.3,1.7-1.2,2.5c-1.8,1.7-5.6,1.8-8.2.3-.7-.4-1.6-1.3-2-2-.3-.6-.6-1.2-.8-2v-.5h-10.9v.5c.2,1.2.5,2.7.9,3.8,1.7,4.7,5.8,7.7,12,8.7,1.8.3,2.6.4,5,.4s2.7,0,4.3-.3c5.9-1,10.1-4.1,11.6-8.5.7-2,.7-4.7.1-6.9-1-3.9-3.9-6.8-8.9-8.6-1.1-.4-1.9-.6-3.9-1.2-4-1-6.1-1.9-7.2-3.1-.7-.8-1-1.6-1-2.7,0-1.8.9-3,2.6-3.5h1.6c1,0,1.7,0,2.5.4.8.3,1.6,1,2.1,1.8.5.7.9,1.9,1.1,2.9v.5h10.8v-.2s0-.5-.2-.9c-.6-3.7-2.2-6.7-4.5-8.8-2.3-2-5.3-3.1-9-3.5h-3.9l-.2-.2h0Z"/>
      <path class="st2" d="M217.5,66.4v20.6h10.7v-16.5h18.4v-8.3h-18.4v-8h20.2v-8.3h-31v20.6h.1Z"/>
    </g>
    <g class="st3">
      <path class="st5" d="M130.5,87.8v-42h10.3l10.4,20.1,4.1,9.3h.3c-.3-2.2-.6-4.7-.9-7.5-.3-2.8-.5-5.5-.5-8v-13.9h9.6v42h-10.3l-10.4-20.3-4.1-9.2h-.3c.2,2.3.5,4.9.8,7.6.3,2.7.5,5.4.5,7.9v13.9h-9.6,0Z"/>
    </g>
  </g>
  <g id="_レイヤー_2" data-name="レイヤー_2">
    <path class="st7" d="M62.9,89.8s-5.3-8-5-18.3c0-1.3.3-6.4,3.1-12.1,1.4-2.8,5.2-10.4,13.7-13.5,8-2.9,16.1.4,16.1.4,0,0-6.7-.8-12.9,1.8-9.1,3.9-12.1,10.1-12.8,11.3-4.2,7.7-5.2,16.1-3.2,23.9s7.8,9.7,7.8,9.9-.7-2-1.1-5.2c-.2-2.2-.7-4.9,1.3-7.9,3.4-5.1,8.7-4.5,9-4.5,1.4,0,4.1-.5,5.7-.9,6.2-1.6,10.9-4.9,14.9-11.4s3.6-8.1,1.2-15c-3.6-10.2-15.6-13.9-23.3-14.2-14.2-.5-23,10.1-23.7,11-7,8.7-7.3,19.4-5.1,27,3.2,10.9,14.1,17.8,14.1,17.8Z"/>
  </g>
</svg>