<?xml version="1.0" encoding="UTF-8"?>
<svg xmlns="http://www.w3.org/2000/svg" version="1.1" xmlns:xlink="http://www.w3.org/1999/xlink" viewBox="0 0 300 150">
  <!-- Generator: Adobe Illustrator 29.8.3, SVG Export Plug-In . SVG Version: 2.1.1 Build 3)  -->
  <defs>
    <style>
      .st0 {
        font-family: NunitoSans-ExtraBold, 'Nunito Sans';
        font-size: 55.8px;
        font-weight: 700;
      }

      .st0, .st1, .st2, .st3 {
        fill: #003061;
      }

      .st4 {
        display: none;
      }

      .st4, .st5, .st1, .st6, .st3 {
        isolation: isolate;
      }

      .st5 {
        fill: #003869;
      }

      .st7 {
        fill: none;
      }

      .st8 {
        fill: #39b68a;
      }

      .st3 {
        font-family: NotoSans-SemiBold, 'Noto Sans';
        font-size: 8.5px;
        font-weight: 600;
      }
    </style>
  </defs>
  <g id="_レイヤー_1">
    <g id="_アートボード_1">
      <rect class="st7" x="-29.8" y="4.3" width="283" height="141.5"/>
      <image class="st4" width="218" height="88" transform="translate(6.1 36.3) scale(.9)" xlink:href="nsf-logo-1.png"/>
      <path class="st5" d="M72.1,48.3s0,.3.2.6c.3.8.8,2.8,1.1,3.8,2.1,7.6,2.7,14.3,1.9,18.8-.4,2-1,3.8-1.8,4.9s-1.2,1.3-1.7,1.6c-.8.4-1.1.5-2.2.5s-1.8-.2-2.8-.6c-4-1.6-7.2-2.4-10-2.3-1.9,0-3.4.5-4.8,1.1-.6.3-1.5.9-2.1,1.4-1.1.9-2.2,2.5-2.6,3.9v.4l.3-.2c.4-.2.9-.5,1.5-.7s2.2-.2,2.9,0c1,.2,2.4.8,3.2,1.3.5.4,1.3,1.1,1.7,1.7.6.8,1,2,1.1,3,0,1.7-.6,4-1.6,5.5-2.5,3.6-8.4,5.1-15.8,4.1-1.1-.2-2.3-.4-3.6-.8-3.1-.8-5.2-1.1-7-.9-2.1.2-3.8.8-5.5,2.1-1,.8-2,1.3-3,1.5-.7.2-2,.2-2.5,0-.8-.3-1.1-.5-1.9-1.2-1.6-1.7-2.8-3.4-3.9-5.6-2.1-4.2-3.3-9.1-3.6-15v-7.6c.3-3.1.7-6.4,1.2-8.8v-.7s-.3.5-.5,1.1c-2.5,5.9-3.8,11.4-4.2,17v5.4c.4,4.8,1.4,9,3.3,13.1,2.8,6.3,7.9,12.4,13.9,16.6,2.2,1.6,4.3,2.6,7.4,3.8,3.6,1.3,7.3,2.1,11,2.4h5.8c5.8-.7,10.8-2.5,15.7-5.8,5.6-3.7,9.8-8.6,12.7-14.3,3.3-6.8,4.8-14.7,4.5-24.6,0-2.8-.2-5.4-.3-6.4-.5-4.4-2.2-9.4-4.8-14.7-1-2-3-5.3-3-5.1l-.4-.2h0ZM72,92.8c-1.5,3.6-3.6,7.1-5.6,9.7-1.7,2.2-3.9,4.3-5.8,5.8-3.7,2.7-7.9,4.3-12.7,4.9-2.3.3-5.8.2-8.4-.2-3.3-.5-5.4-1.5-6.1-2.9-.4-.7-.3-1.5,0-2.3s2.1-1.9,4-2.3h1.9c1.1,0,1.7,0,3.1.4,3.5.8,8.7,1,12,.4,1.9-.4,3.6-.9,5.3-1.7,4.1-2,7.7-5.3,10.8-9.5.6-.8,1.4-2.2,1.7-2.7,0-.2.2-.3.2-.3,0,0-.2.5-.5,1.1,0,0,0-.3,0-.3h0Z"/>
      <g class="st6">
        <g class="st6">
          <g class="st6">
            <text class="st3" transform="translate(92.6 104.2)"><tspan x="0" y="0">National Sister Fisheries</tspan></text>
          </g>
        </g>
        <g class="st6">
          <g class="st6">
            <text class="st3" transform="translate(92.6 114.4)"><tspan x="0" y="0">P</tspan></text>
          </g>
          <g class="st6">
            <text class="st3" transform="translate(97.9 114.4)"><tspan x="0" y="0">r</tspan></text>
          </g>
          <g class="st6">
            <text class="st3" transform="translate(101.4 114.4)"><tspan x="0" y="0">omotion Council Co., Ltd.</tspan></text>
          </g>
        </g>
      </g>
      <path class="st1" d="M148.4,46.7c-3.5.3-6.4,1.2-8.9,2.9-2.4,1.6-3.9,4-4.4,6.7-.2.8-.2,2.8,0,4,.6,4.8,3.4,7.5,9.6,9.7,1.2.4,2.2.7,4,1.1,2.9.8,4.3,1.4,5.5,2.5.8.8,1.1,1.5,1.1,2.5s-.3,1.6-1.1,2.4c-1.7,1.6-5.3,1.7-7.7.3-.7-.4-1.5-1.2-1.9-1.9-.3-.6-.6-1.1-.8-1.9v-.5h-10.3v.5c.2,1.1.5,2.5.8,3.6,1.6,4.4,5.5,7.3,11.3,8.2,1.7.3,2.5.4,4.7.4s2.5,0,4.1-.3c5.6-.9,9.5-3.9,10.9-8,.7-1.9.7-4.4,0-6.5-.9-3.7-3.7-6.4-8.4-8.1-1-.4-1.8-.6-3.7-1.1-3.8-.9-5.8-1.8-6.8-2.9-.7-.8-.9-1.5-.9-2.5,0-1.7.8-2.8,2.5-3.3h1.5c.9,0,1.6,0,2.4.4.8.3,1.5.9,2,1.7.5.7.8,1.8,1,2.7v.5h10.2v-.2s0-.5-.2-.8c-.6-3.5-2.1-6.3-4.2-8.3-2.2-1.9-5-3-8.5-3.4-1.1-.1-1.5-.2-2.8-.2"/>
      <path class="st1" d="M174.6,66.9v19.4h10.1v-15.6h17.4v-7.8h-17.4v-7.5h19.1v-7.8h-29.2v19.4h0Z"/>
    </g>
    <g class="st6">
      <path class="st2" d="M93.3,87.1v-39.6h9.7l9.8,19,3.9,8.8h.3c-.3-2.1-.6-4.4-.8-7.1-.3-2.6-.5-5.2-.5-7.5v-13.1h9.1v39.6h-9.7l-9.8-19.1-3.9-8.7h-.3c.2,2.2.5,4.6.8,7.2.3,2.5.5,5.1.5,7.5v13.1h-9.1,0Z"/>
    </g>
    <path class="st1" d="M268.9,47.5c-1.8.2-2.8.3-3.9.6-6.6,1.7-11.2,6.3-12.9,13.2-.5,1.8-.6,3.3-.6,5.6s0,3.9.5,5.8c1.4,7.1,6,12,12.7,13.6,1.5.4,2.8.6,4.6.6,4,0,7.1-.6,10-1.9,2.4-1.2,4.2-2.8,5.6-4.9,1.2-1.8,2.1-4.5,2.3-7v-.5h-9.8v.6c-.4,1.3-1,2.8-1.7,3.7-1,1.5-2.5,2.3-4.2,2.7-.7,0-2,0-2.8,0-4.3-.7-6.7-4.8-6.9-11.5,0-3.8.4-6.6,1.5-8.9,1.2-2.4,2.9-3.8,5.2-4.3.7-.2,2.7-.2,3.5,0,2.9.6,4.7,2.5,5.3,5.7v.6h10v-1c-.5-3.4-1.8-6.3-4-8.4-2.6-2.5-6.1-3.9-10.5-4.3-.6,0-3.3,0-3.7,0h-.3Z"/>
    <text class="st0" transform="translate(208.4 86.9)"><tspan x="0" y="0">P</tspan></text>
  </g>
  <g id="_レイヤー_2" data-name="レイヤー_2">
    <path class="st8" d="M29.6,88.9s-5-7.5-4.7-17.3c0-1.3.3-6,2.9-11.4,1.3-2.6,4.9-9.8,13-12.8,7.5-2.8,15.2.4,15.2.4,0,0-6.3-.8-12.2,1.7-8.6,3.6-11.4,9.5-12,10.6-4,7.3-4.9,15.2-3,22.6s7.4,9.2,7.4,9.3-.7-1.9-1-4.9c-.2-2-.7-4.6,1.3-7.5,3.2-4.8,8.2-4.3,8.5-4.3,1.3,0,3.9-.4,5.4-.8,5.8-1.5,10.3-4.6,14.1-10.8s3.4-7.6,1.1-14.1c-3.4-9.7-14.8-13.1-22-13.4-13.4-.5-21.7,9.5-22.4,10.4-6.6,8.2-6.9,18.3-4.8,25.5,3,10.3,13.3,16.8,13.3,16.8Z"/>
  </g>
</svg>