<?xml version="1.0" standalone="no"?>
<!DOCTYPE svg PUBLIC "-//W3C//DTD SVG 20010904//EN"
 "http://www.w3.org/TR/2001/REC-SVG-20010904/DTD/svg10.dtd">
<svg version="1.0" xmlns="http://www.w3.org/2000/svg"
 width="4500.000000pt" height="4500.000000pt" viewBox="0 0 4500.000000 4500.000000"
 preserveAspectRatio="xMidYMid meet">

<g transform="translate(0.000000,4500.000000) scale(0.100000,-0.100000)"
fill="#000000" stroke="none">
<path d="M22190 28034 c-615 -45 -1131 -213 -1551 -507 -409 -287 -684 -700
-780 -1173 -31 -155 -38 -505 -15 -693 107 -839 601 -1334 1696 -1701 211 -71
378 -119 690 -200 512 -133 765 -246 953 -429 139 -134 198 -268 199 -446 1
-172 -53 -289 -191 -417 -302 -280 -924 -300 -1357 -45 -114 67 -270 219 -339
331 -57 92 -105 207 -136 324 l-22 82 -890 0 -889 0 7 -77 c18 -202 72 -450
137 -628 287 -785 965 -1279 1991 -1449 299 -50 435 -60 827 -61 383 0 453 5
718 51 976 167 1680 685 1918 1410 109 333 118 773 23 1146 -164 649 -651
1122 -1469 1426 -178 66 -317 107 -650 191 -671 169 -1005 312 -1199 511 -123
125 -173 257 -172 450 1 296 147 491 426 572 71 20 101 23 260 23 198 -1 281
-16 410 -74 126 -58 262 -173 344 -294 80 -117 156 -318 184 -487 l13 -75 889
0 890 0 -3 35 c-2 19 -12 89 -23 155 -102 610 -364 1116 -753 1451 -379 327
-873 521 -1491 584 -114 11 -548 21 -645 14z"/>
<path d="M36220 28034 c-327 -28 -495 -53 -702 -104 -1194 -297 -2025 -1147
-2327 -2384 -81 -328 -112 -593 -118 -1006 -7 -436 13 -695 82 -1036 255
-1269 1078 -2153 2290 -2458 266 -67 500 -96 831 -103 705 -15 1284 98 1799
352 436 215 759 496 1015 885 219 334 379 817 417 1264 l6 76 -890 0 -890 0
-23 -112 c-47 -237 -154 -502 -269 -665 -183 -259 -441 -422 -761 -479 -128
-23 -372 -23 -500 0 -771 139 -1206 859 -1249 2066 -24 678 61 1186 270 1605
210 423 523 680 939 771 130 29 486 26 627 -4 531 -115 838 -445 964 -1034
l22 -108 889 0 888 0 0 33 c0 17 -7 81 -15 141 -81 607 -332 1123 -734 1508
-461 442 -1090 701 -1891 778 -110 11 -592 21 -670 14z"/>
<path d="M26770 24490 l0 -3410 890 0 890 0 0 1365 0 1365 1525 0 1525 0 0
690 0 690 -1525 0 -1525 0 0 665 0 665 1675 0 1675 0 0 690 0 690 -2565 0
-2565 0 0 -3410z"/>
<path d="M15930 27667 c0 -2 14 -43 30 -93 45 -130 153 -487 199 -654 367
-1338 483 -2492 326 -3265 -69 -342 -184 -651 -315 -846 -67 -99 -212 -238
-295 -281 -137 -71 -190 -83 -370 -83 -192 1 -317 26 -497 100 -697 287 -1242
409 -1748 392 -326 -12 -596 -75 -841 -198 -100 -50 -266 -162 -357 -241 -195
-171 -381 -441 -466 -675 -14 -40 -24 -73 -21 -73 2 0 24 13 48 30 58 39 169
86 266 112 105 29 375 32 501 5 187 -40 415 -133 560 -229 90 -59 238 -204
300 -294 105 -151 173 -343 189 -526 24 -289 -94 -683 -286 -951 -449 -626
-1461 -887 -2743 -706 -193 27 -395 69 -620 129 -549 147 -905 196 -1220 170
-365 -30 -662 -144 -957 -368 -182 -137 -349 -222 -533 -268 -113 -29 -338
-27 -443 4 -146 42 -203 78 -325 209 -274 292 -487 598 -676 972 -363 719
-571 1582 -627 2610 -15 279 -6 1064 15 1336 43 540 123 1119 212 1534 13 63
23 116 21 117 -2 2 -42 -89 -89 -204 -427 -1033 -661 -1981 -729 -2952 -14
-210 -14 -740 0 -935 63 -832 244 -1556 573 -2285 497 -1104 1373 -2156 2410
-2895 381 -272 754 -463 1278 -655 620 -227 1267 -366 1924 -411 221 -15 798
-6 1001 15 1000 107 1874 427 2727 997 964 645 1714 1494 2212 2504 581 1175
835 2565 787 4295 -14 493 -36 939 -57 1120 -86 771 -375 1647 -843 2555 -182
353 -521 927 -521 882z m-20 -7753 c-268 -622 -620 -1233 -974 -1688 -298
-383 -668 -750 -1011 -1004 -648 -479 -1378 -759 -2215 -847 -400 -42 -1014
-25 -1459 41 -574 85 -939 260 -1062 510 -58 117 -51 261 18 397 84 168 361
326 697 399 87 19 131 22 326 22 242 0 294 -6 534 -65 608 -148 1506 -177
2091 -68 322 60 616 157 920 303 708 341 1354 913 1883 1667 91 130 251 384
297 471 16 31 31 55 33 54 1 -2 -34 -88 -78 -192z"/>
<path d="M26820 18490 l0 -570 84 0 83 0 6 248 c6 278 15 327 69 379 42 39 97
57 160 51 58 -6 96 -31 120 -79 16 -30 18 -67 18 -316 l0 -283 90 0 90 0 0
263 c0 348 -11 415 -78 483 -51 52 -106 69 -217 69 -113 -1 -163 -19 -222 -82
l-33 -34 0 220 0 221 -85 0 -85 0 0 -570z"/>
<path d="M20523 19016 c-23 -20 -28 -32 -28 -71 0 -39 5 -51 28 -71 38 -33 96
-33 134 0 24 21 28 31 27 72 -1 38 -6 52 -28 71 -37 32 -95 31 -133 -1z"/>
<path d="M25693 19016 c-23 -20 -28 -32 -28 -71 0 -39 5 -51 28 -71 38 -33 96
-33 134 0 24 21 28 31 27 72 -1 38 -6 52 -28 71 -37 32 -95 31 -133 -1z"/>
<path d="M29303 19016 c-23 -20 -28 -32 -28 -71 0 -39 5 -51 28 -71 38 -33 96
-33 134 0 24 21 28 31 27 72 -1 38 -6 52 -28 71 -37 32 -95 31 -133 -1z"/>
<path d="M38393 19016 c-23 -20 -28 -32 -28 -71 0 -39 5 -51 28 -71 38 -33 96
-33 134 0 24 21 28 31 27 72 -1 38 -6 52 -28 71 -37 32 -95 31 -133 -1z"/>
<path d="M19882 18999 c-60 -11 -138 -57 -176 -101 -41 -48 -56 -97 -56 -184
0 -126 67 -218 206 -284 256 -120 256 -120 279 -186 26 -77 -19 -151 -107
-175 -66 -18 -192 -5 -298 30 -50 17 -93 31 -96 31 -2 0 -4 -36 -4 -80 0 -72
2 -80 22 -91 80 -43 299 -61 413 -35 161 38 255 146 255 291 0 125 -66 213
-209 280 -202 95 -245 120 -269 155 -50 74 -8 177 83 201 67 19 202 -1 306
-45 13 -6 22 7 43 59 14 36 26 69 26 74 0 12 -107 47 -184 60 -69 13 -172 13
-234 0z"/>
<path d="M32016 18995 c-233 -59 -366 -255 -366 -539 1 -277 105 -453 310
-522 77 -26 286 -27 388 0 l72 18 0 78 0 78 -72 -20 c-228 -61 -389 -17 -464
128 -88 171 -56 460 63 564 65 58 117 75 218 74 73 0 103 -6 159 -27 37 -15
70 -27 73 -27 5 0 63 128 63 140 0 4 -37 20 -82 35 -103 34 -269 43 -362 20z"/>
<path d="M24890 18455 l0 -535 85 0 85 0 0 220 0 220 205 0 205 0 0 75 0 75
-205 0 -205 0 0 165 0 165 220 0 220 0 0 75 0 75 -305 0 -305 0 0 -535z"/>
<path d="M21706 18825 l-27 -85 -60 -30 c-57 -29 -59 -32 -59 -70 l0 -40 55 0
55 0 0 -246 c0 -146 4 -263 11 -289 17 -68 69 -122 137 -141 60 -18 183 -15
235 5 26 10 27 14 27 77 0 59 -2 65 -17 59 -36 -14 -138 -16 -163 -3 -53 28
-60 62 -60 311 l0 227 115 0 115 0 0 65 0 65 -115 0 -115 0 0 90 0 90 -53 0
-53 0 -28 -85z"/>
<path d="M37836 18825 l-27 -85 -60 -30 c-57 -29 -59 -32 -59 -70 l0 -40 55 0
55 0 0 -246 c0 -146 4 -263 11 -289 17 -68 69 -122 137 -141 60 -18 183 -15
235 5 26 10 27 14 27 77 0 59 -2 65 -17 59 -36 -14 -138 -16 -163 -3 -53 28
-60 62 -60 311 l0 227 115 0 115 0 0 65 0 65 -115 0 -115 0 0 90 0 90 -53 0
-53 0 -28 -85z"/>
<path d="M21050 18725 c-139 -39 -204 -142 -169 -268 21 -77 88 -126 267 -197
136 -53 180 -112 131 -173 -43 -55 -180 -61 -322 -13 -43 14 -80 26 -83 26 -3
0 -4 -33 -2 -72 l3 -73 55 -19 c44 -16 83 -20 195 -20 133 -1 143 0 200 27 33
15 68 36 78 45 64 58 83 190 38 269 -32 56 -74 84 -215 143 -137 57 -163 72
-178 106 -26 55 35 105 129 103 41 0 114 -16 201 -44 20 -7 25 -1 47 49 14 31
25 61 25 66 0 5 -30 19 -67 31 -90 28 -256 35 -333 14z"/>
<path d="M22431 18719 c-86 -27 -167 -106 -200 -193 -49 -130 -47 -303 5 -413
69 -145 211 -213 417 -200 51 3 119 14 152 24 l60 19 3 70 3 71 -73 -25 c-86
-29 -206 -39 -266 -23 -81 22 -141 97 -157 199 l-7 42 271 0 271 0 0 83 c0
185 -75 303 -221 348 -79 25 -176 24 -258 -2z m215 -128 c49 -22 82 -71 90
-135 l7 -46 -183 0 -183 0 6 41 c16 123 147 192 263 140z"/>
<path d="M23426 18724 c-54 -19 -102 -58 -134 -106 l-26 -41 -7 29 c-4 16 -10
50 -14 77 l-6 47 -70 0 -69 0 0 -405 0 -405 90 0 90 0 0 244 c0 191 3 251 15
279 37 89 123 141 226 135 68 -3 66 -6 71 92 l3 65 -65 2 c-37 1 -82 -4 -104
-13z"/>
<path d="M23880 18725 c-139 -39 -204 -142 -169 -268 21 -77 88 -126 267 -197
136 -53 180 -112 131 -173 -43 -55 -180 -61 -322 -13 -43 14 -80 26 -83 26 -3
0 -4 -33 -2 -72 l3 -73 55 -19 c44 -16 83 -20 195 -20 133 -1 143 0 200 27 33
15 68 36 78 45 64 58 83 190 38 269 -32 56 -74 84 -215 143 -137 57 -163 72
-178 106 -26 55 35 105 129 103 41 0 114 -16 201 -44 20 -7 25 -1 47 49 14 31
25 61 25 66 0 5 -30 19 -67 31 -90 28 -256 35 -333 14z"/>
<path d="M26220 18725 c-139 -39 -204 -142 -169 -268 21 -77 88 -126 267 -197
136 -53 180 -112 131 -173 -43 -55 -180 -61 -322 -13 -43 14 -80 26 -83 26 -3
0 -4 -33 -2 -72 l3 -73 55 -19 c44 -16 83 -20 195 -20 133 -1 143 0 200 27 33
15 68 36 78 45 64 58 83 190 38 269 -32 56 -74 84 -215 143 -137 57 -163 72
-178 106 -26 55 35 105 129 103 41 0 114 -16 201 -44 20 -7 25 -1 47 49 14 31
25 61 25 66 0 5 -30 19 -67 31 -90 28 -256 35 -333 14z"/>
<path d="M27961 18719 c-86 -27 -167 -106 -200 -193 -49 -130 -47 -303 5 -413
69 -145 211 -213 417 -200 51 3 119 14 152 24 l60 19 3 70 3 71 -73 -25 c-86
-29 -206 -39 -266 -23 -81 22 -141 97 -157 199 l-7 42 271 0 271 0 0 83 c0
185 -75 303 -221 348 -79 25 -176 24 -258 -2z m215 -128 c49 -22 82 -71 90
-135 l7 -46 -183 0 -183 0 6 41 c16 123 147 192 263 140z"/>
<path d="M28956 18724 c-54 -19 -102 -58 -134 -106 l-26 -41 -7 29 c-4 16 -10
50 -14 77 l-6 47 -70 0 -69 0 0 -405 0 -405 90 0 90 0 0 244 c0 191 3 251 15
279 37 89 123 141 226 135 68 -3 66 -6 71 92 l3 65 -65 2 c-37 1 -82 -4 -104
-13z"/>
<path d="M29891 18719 c-86 -27 -167 -106 -200 -193 -49 -130 -47 -303 5 -413
69 -145 211 -213 417 -200 51 3 119 14 152 24 l60 19 3 70 3 71 -73 -25 c-86
-29 -206 -39 -266 -23 -81 22 -141 97 -157 199 l-7 42 271 0 271 0 0 83 c0
185 -75 303 -221 348 -79 25 -176 24 -258 -2z m215 -128 c49 -22 82 -71 90
-135 l7 -46 -183 0 -183 0 6 41 c16 123 147 192 263 140z"/>
<path d="M30690 18725 c-139 -39 -204 -142 -169 -268 21 -77 88 -126 267 -197
136 -53 180 -112 131 -173 -43 -55 -180 -61 -322 -13 -43 14 -80 26 -83 26 -3
0 -4 -33 -2 -72 l3 -73 55 -19 c44 -16 83 -20 195 -20 133 -1 143 0 200 27 33
15 68 36 78 45 64 58 83 190 38 269 -32 56 -74 84 -215 143 -137 57 -163 72
-178 106 -26 55 35 105 129 103 41 0 114 -16 201 -44 20 -7 25 -1 47 49 14 31
25 61 25 66 0 5 -30 19 -67 31 -90 28 -256 35 -333 14z"/>
<path d="M32857 18730 c-149 -38 -245 -155 -267 -324 -24 -187 39 -359 158
-435 171 -108 430 -67 530 84 54 82 67 135 67 275 -1 107 -4 134 -25 185 -31
79 -124 174 -195 199 -58 21 -212 30 -268 16z m203 -152 c81 -41 110 -109 110
-255 0 -103 -23 -184 -63 -221 -53 -50 -145 -66 -215 -36 -89 37 -126 113
-126 259 0 111 15 165 61 216 56 62 152 77 233 37z"/>
<path d="M33777 18730 c-149 -38 -245 -155 -267 -324 -24 -187 39 -359 158
-435 171 -108 430 -67 530 84 54 82 67 135 67 275 -1 107 -4 134 -25 185 -31
79 -124 174 -195 199 -58 21 -212 30 -268 16z m203 -152 c81 -41 110 -109 110
-255 0 -103 -23 -184 -63 -221 -53 -50 -145 -66 -215 -36 -89 37 -126 113
-126 259 0 111 15 165 61 216 56 62 152 77 233 37z"/>
<path d="M34781 18729 c-46 -14 -107 -54 -127 -84 -21 -32 -30 -24 -41 35 l-9
45 -72 3 -72 3 0 -586 0 -585 85 0 85 0 0 231 0 231 32 -33 c70 -70 201 -97
313 -65 157 46 247 247 217 486 -26 215 -141 332 -321 329 -31 0 -71 -5 -90
-10z m147 -156 c68 -50 97 -141 90 -278 -8 -150 -68 -234 -173 -243 -99 -8
-169 42 -196 141 -14 51 -13 224 1 276 14 52 59 104 102 119 51 17 143 9 176
-15z"/>
<path d="M35591 18719 c-86 -27 -167 -106 -200 -193 -49 -130 -47 -303 5 -413
69 -145 211 -213 417 -200 51 3 119 14 152 24 l60 19 3 70 3 71 -73 -25 c-86
-29 -206 -39 -266 -23 -81 22 -141 97 -157 199 l-7 42 271 0 271 0 0 83 c0
185 -75 303 -221 348 -79 25 -176 24 -258 -2z m215 -128 c49 -22 82 -71 90
-135 l7 -46 -183 0 -183 0 6 41 c16 123 147 192 263 140z"/>
<path d="M36586 18724 c-54 -19 -102 -58 -134 -106 l-26 -41 -7 29 c-4 16 -10
50 -14 77 l-6 47 -70 0 -69 0 0 -405 0 -405 90 0 90 0 0 244 c0 191 3 251 15
279 37 89 123 141 226 135 68 -3 66 -6 71 92 l3 65 -65 2 c-37 1 -82 -4 -104
-13z"/>
<path d="M37110 18729 c-62 -12 -170 -51 -170 -61 0 -7 47 -106 54 -115 0 0
39 12 86 28 184 62 290 17 290 -123 l0 -48 -62 0 c-102 0 -234 -19 -293 -41
-111 -41 -155 -104 -155 -219 0 -109 32 -169 115 -213 33 -18 57 -22 140 -22
116 0 166 17 228 80 20 21 39 36 41 34 2 -2 11 -26 19 -54 l14 -50 62 -3 61
-3 0 309 c0 371 -5 395 -96 460 -65 45 -216 64 -334 41z m260 -487 c0 -86 -30
-139 -100 -174 -130 -67 -263 -2 -230 113 23 80 101 114 273 118 l57 1 0 -58z"/>
<path d="M39781 18719 c-86 -27 -167 -106 -200 -193 -49 -130 -47 -303 5 -413
69 -145 211 -213 417 -200 51 3 119 14 152 24 l60 19 3 70 3 71 -73 -25 c-86
-29 -206 -39 -266 -23 -81 22 -141 97 -157 199 l-7 42 271 0 271 0 0 83 c0
185 -75 303 -221 348 -79 25 -176 24 -258 -2z m215 -128 c49 -22 82 -71 90
-135 l7 -46 -183 0 -183 0 6 41 c16 123 147 192 263 140z"/>
<path d="M20500 18325 l0 -405 90 0 90 0 0 405 0 405 -90 0 -90 0 0 -405z"/>
<path d="M25670 18325 l0 -405 90 0 90 0 0 405 0 405 -90 0 -90 0 0 -405z"/>
<path d="M29280 18325 l0 -405 90 0 90 0 0 405 0 405 -90 0 -90 0 0 -405z"/>
<path d="M38370 18325 l0 -405 90 0 90 0 0 405 0 405 -90 0 -90 0 0 -405z"/>
<path d="M38672 18722 c1 -5 71 -187 153 -405 l150 -397 95 0 95 0 149 393
c82 215 151 398 154 405 3 10 -16 12 -88 10 l-93 -3 -89 -253 c-48 -139 -97
-286 -107 -325 -11 -40 -21 -65 -24 -57 -3 8 -12 42 -21 75 -9 33 -56 173
-104 310 l-88 250 -93 3 c-52 1 -91 -1 -89 -6z"/>
<path d="M32710 16690 l0 -570 90 0 90 0 0 570 0 570 -90 0 -90 0 0 -570z"/>
<path d="M25123 17216 c-23 -20 -28 -32 -28 -71 0 -39 5 -51 28 -71 38 -33 96
-33 134 0 24 21 28 31 27 72 -1 38 -6 52 -28 71 -37 32 -95 31 -133 -1z"/>
<path d="M32313 17216 c-23 -20 -28 -32 -28 -71 0 -39 5 -51 28 -71 38 -33 96
-33 134 0 24 21 28 31 27 72 -1 38 -6 52 -28 71 -37 32 -95 31 -133 -1z"/>
<path d="M28116 17195 c-233 -59 -366 -255 -366 -539 1 -277 105 -453 310
-522 77 -26 286 -27 388 0 l72 18 0 78 0 78 -72 -20 c-228 -61 -389 -17 -464
128 -88 171 -56 460 63 564 65 58 117 75 218 74 73 0 103 -6 159 -27 37 -15
70 -27 73 -27 5 0 63 128 63 140 0 4 -37 20 -82 35 -103 34 -269 43 -362 20z"/>
<path d="M19700 16656 l0 -536 90 0 90 0 0 199 0 198 123 6 c67 3 145 12 172
21 161 50 243 172 233 347 -8 140 -65 219 -197 271 -51 20 -78 22 -283 26
l-228 4 0 -536z m406 369 c111 -33 156 -147 102 -255 -35 -67 -91 -92 -224
-98 l-104 -5 0 187 0 186 88 0 c49 0 111 -7 138 -15z"/>
<path d="M24566 17025 l-27 -85 -60 -30 c-57 -29 -59 -32 -59 -70 l0 -40 55 0
55 0 0 -246 c0 -146 4 -263 11 -289 17 -68 69 -122 137 -141 60 -18 183 -15
235 5 26 10 27 14 27 77 0 59 -2 65 -17 59 -36 -14 -138 -16 -163 -3 -53 28
-60 62 -60 311 l0 227 115 0 115 0 0 65 0 65 -115 0 -115 0 0 90 0 90 -53 0
-53 0 -28 -85z"/>
<path d="M20926 16924 c-54 -19 -102 -58 -134 -106 l-26 -41 -7 29 c-4 16 -10
50 -14 77 l-6 47 -70 0 -69 0 0 -405 0 -405 90 0 90 0 0 244 c0 191 3 251 15
279 37 89 123 141 226 135 68 -3 66 -6 71 92 l3 65 -65 2 c-37 1 -82 -4 -104
-13z"/>
<path d="M21477 16930 c-149 -38 -245 -155 -267 -324 -24 -187 39 -359 158
-435 171 -108 430 -67 530 84 54 82 67 135 67 275 -1 107 -4 134 -25 185 -31
79 -124 174 -195 199 -58 21 -212 30 -268 16z m203 -152 c81 -41 110 -109 110
-255 0 -103 -23 -184 -63 -221 -53 -50 -145 -66 -215 -36 -89 37 -126 113
-126 259 0 111 15 165 61 216 56 62 152 77 233 37z"/>
<path d="M22472 16926 c-55 -18 -91 -41 -123 -79 l-27 -31 -12 57 -11 57 -70
0 -69 0 0 -405 0 -405 85 0 85 0 0 183 c1 346 20 429 110 475 86 43 177 22
210 -50 18 -39 20 -67 20 -325 l0 -283 90 0 90 0 0 259 c0 323 9 358 105 402
81 37 172 15 207 -51 16 -31 18 -63 18 -322 l0 -288 91 0 91 0 -4 313 c-4 262
-7 319 -21 357 -35 93 -106 139 -227 147 -107 8 -179 -15 -241 -77 l-46 -46
-32 38 c-48 57 -101 80 -196 84 -51 3 -95 -1 -123 -10z"/>
<path d="M23827 16930 c-149 -38 -245 -155 -267 -324 -24 -187 39 -359 158
-435 171 -108 430 -67 530 84 54 82 67 135 67 275 -1 107 -4 134 -25 185 -31
79 -124 174 -195 199 -58 21 -212 30 -268 16z m203 -152 c81 -41 110 -109 110
-255 0 -103 -23 -184 -63 -221 -53 -50 -145 -66 -215 -36 -89 37 -126 113
-126 259 0 111 15 165 61 216 56 62 152 77 233 37z"/>
<path d="M25747 16930 c-149 -38 -245 -155 -267 -324 -24 -187 39 -359 158
-435 171 -108 430 -67 530 84 54 82 67 135 67 275 -1 107 -4 134 -25 185 -31
79 -124 174 -195 199 -58 21 -212 30 -268 16z m203 -152 c81 -41 110 -109 110
-255 0 -103 -23 -184 -63 -221 -53 -50 -145 -66 -215 -36 -89 37 -126 113
-126 259 0 111 15 165 61 216 56 62 152 77 233 37z"/>
<path d="M26752 16923 c-33 -10 -71 -32 -102 -60 l-48 -43 -12 55 -11 55 -70
0 -69 0 0 -405 0 -405 84 0 83 0 6 253 c6 278 13 316 68 373 55 57 178 71 238
27 58 -43 61 -61 61 -370 l0 -283 91 0 91 0 -4 308 c-5 328 -8 353 -60 422
-12 17 -47 43 -77 57 -68 34 -188 41 -269 16z"/>
<path d="M28957 16930 c-149 -38 -245 -155 -267 -324 -24 -187 39 -359 158
-435 171 -108 430 -67 530 84 54 82 67 135 67 275 -1 107 -4 134 -25 185 -31
79 -124 174 -195 199 -58 21 -212 30 -268 16z m203 -152 c81 -41 110 -109 110
-255 0 -103 -23 -184 -63 -221 -53 -50 -145 -66 -215 -36 -89 37 -126 113
-126 259 0 111 15 165 61 216 56 62 152 77 233 37z"/>
<path d="M30912 16923 c-33 -10 -71 -32 -102 -60 l-48 -43 -12 55 -11 55 -70
0 -69 0 0 -405 0 -405 84 0 83 0 6 253 c6 278 13 316 68 373 55 57 178 71 238
27 58 -43 61 -61 61 -370 l0 -283 91 0 91 0 -4 308 c-5 328 -8 353 -60 422
-12 17 -47 43 -77 57 -68 34 -188 41 -269 16z"/>
<path d="M31777 16929 c-195 -46 -298 -236 -266 -491 25 -205 137 -313 335
-326 87 -5 188 9 236 34 27 14 28 18 28 84 0 39 -3 70 -7 70 -5 0 -32 -9 -62
-21 -165 -62 -304 -16 -343 113 -16 56 -16 212 1 263 20 58 58 105 105 126 62
28 107 25 251 -16 18 -5 24 3 44 60 28 78 29 77 -71 100 -72 16 -190 18 -251
4z"/>
<path d="M25100 16525 l0 -405 90 0 90 0 0 405 0 405 -90 0 -90 0 0 -405z"/>
<path d="M29640 16627 c0 -336 5 -376 60 -435 52 -57 110 -77 225 -77 114 0
170 20 230 82 37 38 37 38 51 -39 l6 -38 69 0 69 0 0 405 0 405 -85 0 -85 0 0
-212 c0 -117 -5 -242 -10 -277 -21 -128 -72 -180 -183 -188 -81 -6 -124 15
-154 77 -22 43 -23 54 -23 322 l0 278 -85 0 -85 0 0 -303z"/>
<path d="M32290 16525 l0 -405 90 0 90 0 0 405 0 405 -90 0 -90 0 0 -405z"/>
</g>
</svg>
