<svg width="850" height="250" viewBox="0 0 850 250" xmlns="http://www.w3.org/2000/svg">
  <!-- 円形のロゴマーク -->
  <g transform="translate(50, 50)">
    <!-- 外側の円 -->
    <circle cx="75" cy="75" r="75" fill="#1e3a5f"/>
    
    <!-- 内側の波模様 -->
    <g>
      <!-- 緑の葉っぱのような形 -->
      <path d="M 75 20 C 100 20, 120 35, 120 60 C 120 85, 100 100, 75 100 C 50 100, 30 85, 30 60 C 30 45, 40 30, 55 25 C 65 20, 75 20, 75 20" 
            fill="#4ade80" opacity="0.9"/>
      
      <!-- 青の波形（下部） -->
      <path d="M 20 75 C 30 60, 45 55, 60 60 C 75 65, 85 70, 95 75 C 105 80, 115 85, 125 95 C 130 100, 130 110, 125 115 C 115 125, 100 130, 75 130 C 50 130, 35 125, 25 115 C 15 105, 15 90, 20 75" 
            fill="#1e3a5f" opacity="0.8"/>
      
      <!-- 内側の白い波形 -->
      <path d="M 45 70 C 55 65, 65 65, 75 70 C 85 75, 90 80, 90 85 C 90 90, 85 95, 75 95 C 65 95, 60 90, 60 85 C 60 80, 55 75, 45 70" 
            fill="white" opacity="0.5"/>
    </g>
  </g>
  
  <!-- SFC テキスト -->
  <text x="250" y="145" font-family="Arial, sans-serif" font-size="120" font-weight="bold" fill="#1e3a5f">SFC</text>
  
  <!-- サブタイトル -->
  <g transform="translate(250, 180)">
    <text x="0" y="0" font-family="Arial, sans-serif" font-size="32" fill="#1e3a5f">Sisters Fisheries Cooperative</text>
    <text x="0" y="40" font-family="Arial, sans-serif" font-size="32" fill="#1e3a5f">Promotion Council</text>
  </g>
</svg>