<?xml version="1.0" encoding="UTF-8"?>
<svg id="_レイヤー_1" data-name="レイヤー_1" xmlns="http://www.w3.org/2000/svg" version="1.1" xmlns:xlink="http://www.w3.org/1999/xlink" viewBox="0 0 300 150">
  <!-- Generator: Adobe Illustrator 29.7.1, SVG Export Plug-In . SVG Version: 2.1.1 Build 8)  -->
  <defs>
    <style>
      .st0 {
        fill: #fff;
      }

      .st1 {
        fill: #003869;
      }

      .st1, .st2, .st3, .st4 {
        isolation: isolate;
      }

      .st2, .st4 {
        fill: #003061;
      }

      .st4 {
        font-family: NotoSans-SemiBold, 'Noto Sans';
        font-size: 9px;
        font-weight: 600;
      }
    </style>
  </defs>
  <g id="_アートボード_1" data-name="アートボード_1">
    <image id="SFC_logo__op1_wl" class="st3" width="218" height="88" transform="translate(38 34)" xlink:href="sfc-logo-new-1.png"/>
    <rect class="st0" x="124.9" y="39.4" width="154.1" height="82.6"/>
  </g>
  <text class="st4" transform="translate(129.7 106)"><tspan x="0" y="0">National Sister Fisheries</tspan><tspan x="0" y="10.8">Promotion Council Co., Ltd.</tspan></text>
  <path class="st2" d="M146.4,45c-3.7.3-6.8,1.3-9.4,3.1-2.5,1.7-4.1,4.2-4.7,7.1-.2.9-.2,3,0,4.2.6,5.1,3.6,8,10.2,10.3,1.3.4,2.3.7,4.2,1.2,3.1.8,4.6,1.5,5.8,2.6.8.8,1.2,1.6,1.2,2.7,0,1-.3,1.7-1.2,2.5-1.8,1.7-5.6,1.8-8.2.3-.7-.4-1.6-1.3-2-2-.3-.6-.6-1.2-.8-2v-.5h-10.9v.5c.2,1.2.5,2.7.9,3.8,1.7,4.7,5.8,7.7,12,8.7,1.8.3,2.6.4,5,.4,2.3,0,2.7,0,4.3-.3,5.9-1,10.1-4.1,11.6-8.5.7-2,.7-4.7.1-6.9-1-3.9-3.9-6.8-8.9-8.6-1.1-.4-1.9-.6-3.9-1.2-4-1-6.1-1.9-7.2-3.1-.7-.8-1-1.6-1-2.7,0-1.8.9-3,2.6-3.5.4-.1.6-.1,1.6-.1,1.2,0,1.7,0,2.5.4.8.3,1.6,1,2.1,1.8.5.7.9,1.9,1.1,2.9v.5h10.8v-.2c0-.1,0-.5-.2-.9-.6-3.7-2.2-6.7-4.5-8.8-2.3-2-5.3-3.1-9-3.5-.7,0-3.3-.1-3.9,0Z"/>
  <path class="st2" d="M231.1,45c-2,.2-3,.3-4.2.6-7.2,1.8-12.2,6.9-14,14.4-.5,2-.7,3.6-.7,6.1,0,2.6,0,4.2.5,6.3,1.5,7.7,6.5,13,13.8,14.8,1.6.4,3,.6,5,.6,4.3,0,7.7-.6,10.9-2.1,2.6-1.3,4.6-3,6.1-5.3,1.3-2,2.3-4.9,2.5-7.6v-.5s-5.3,0-5.3,0h-5.4v.7c-.4,1.4-1.1,3-1.8,4-1.1,1.6-2.7,2.5-4.6,2.9-.8.1-2.2.1-3,0-4.7-.8-7.3-5.2-7.5-12.5-.1-4.1.4-7.2,1.6-9.7,1.3-2.6,3.2-4.1,5.7-4.7.8-.2,2.9-.2,3.8,0,3.2.7,5.1,2.7,5.8,6.2v.7h10.9v-.2c0-.1,0-.5,0-.9-.5-3.7-2-6.8-4.4-9.1-2.8-2.7-6.6-4.2-11.4-4.7-.7,0-3.6-.1-4,0Z"/>
  <path class="st2" d="M174.1,66.4v20.6h10.7v-16.5h18.4v-8.3h-18.4v-8h20.2v-8.3h-31v20.6Z"/>
  <path class="st1" d="M108,46.7s0,.3.2.6c.3.8.9,3,1.2,4,2.2,8.1,2.9,15.2,2,19.9-.4,2.1-1.1,4-1.9,5.2-.4.6-1.3,1.4-1.8,1.7-.8.4-1.2.5-2.3.5-1.2,0-1.9-.2-3-.6-4.2-1.7-7.6-2.5-10.6-2.4-2,0-3.6.5-5.1,1.2-.6.3-1.6,1-2.2,1.5-1.2,1-2.3,2.7-2.8,4.1,0,.2-.1.4-.1.4s.1,0,.3-.2c.4-.2,1-.5,1.6-.7.6-.2,2.3-.2,3.1,0,1.1.2,2.5.8,3.4,1.4.5.4,1.4,1.2,1.8,1.8.6.9,1.1,2.1,1.2,3.2.1,1.8-.6,4.2-1.7,5.8-2.7,3.8-8.9,5.4-16.7,4.3-1.2-.2-2.4-.4-3.8-.8-3.3-.9-5.5-1.2-7.4-1-2.2.2-4,.9-5.8,2.2-1.1.8-2.1,1.4-3.2,1.6-.7.2-2.1.2-2.7,0-.9-.3-1.2-.5-2-1.3-1.7-1.8-3-3.6-4.1-5.9-2.2-4.4-3.5-9.6-3.8-15.9,0-1.7,0-6.5,0-8.1.3-3.3.7-6.8,1.3-9.3,0-.4.1-.7.1-.7,0,0-.3.5-.5,1.2-2.6,6.3-4,12.1-4.4,18,0,1.3,0,4.5,0,5.7.4,5.1,1.5,9.5,3.5,13.9,3,6.7,8.4,13.1,14.7,17.6,2.3,1.7,4.6,2.8,7.8,4,3.8,1.4,7.7,2.2,11.7,2.5,1.3,0,4.9,0,6.1,0,6.1-.7,11.4-2.6,16.6-6.1,5.9-3.9,10.4-9.1,13.5-15.2,3.5-7.2,5.1-15.6,4.8-26.1,0-3-.2-5.7-.3-6.8-.5-4.7-2.3-10-5.1-15.6-1.1-2.1-3.2-5.6-3.2-5.4ZM107.9,93.9c-1.6,3.8-3.8,7.5-5.9,10.3-1.8,2.3-4.1,4.6-6.2,6.1-3.9,2.9-8.4,4.6-13.5,5.2-2.4.3-6.2.2-8.9-.2-3.5-.5-5.7-1.6-6.5-3.1-.4-.7-.3-1.6.1-2.4.5-1,2.2-2,4.2-2.4.5-.1.8-.1,2-.1s1.8,0,3.3.4c3.7.9,9.2,1.1,12.7.4,2-.4,3.8-1,5.6-1.8,4.3-2.1,8.2-5.6,11.5-10.1.6-.8,1.5-2.3,1.8-2.9,0-.2.2-.3.2-.3,0,0-.2.5-.5,1.2Z"/>
</svg>